<svg width="435" height="431" viewBox="0 0 435 431" fill="none" xmlns="http://www.w3.org/2000/svg">
<path d="M435 192.556C435 298.901 353.31 273.295 233.189 273.295C113.067 273.295 0 298.901 0 192.556C0 86.2101 97.3781 0 217.5 0C337.622 0 435 86.2101 435 192.556Z" fill="#B9DEE0"/>
<g opacity="0.6">
<path fill-rule="evenodd" clip-rule="evenodd" d="M298.247 387.98C302.115 419.813 208.307 440.576 127.564 426.086C46.8206 411.596 9.7795 355.01 48.3087 324.859C86.8382 294.707 294.379 356.148 298.247 387.98Z" fill="#1746A2"/>
</g>
<path d="M133.214 179.34H75.8923C74.1213 179.34 72.6855 181.085 72.6855 183.238V322.607C72.6855 324.76 74.1213 326.505 75.8923 326.505H133.214C134.985 326.505 136.421 324.76 136.421 322.607V183.238C136.421 181.085 134.985 179.34 133.214 179.34Z" fill="#F2F2F2"/>
<path fill-rule="evenodd" clip-rule="evenodd" d="M104.353 317.246C107.673 317.246 110.365 313.973 110.365 309.936C110.365 305.9 107.673 302.627 104.353 302.627C101.032 302.627 98.3398 305.9 98.3398 309.936C98.3398 313.973 101.032 317.246 104.353 317.246Z" fill="white"/>
<path fill-rule="evenodd" clip-rule="evenodd" d="M99.1415 189.085C99.5845 189.085 99.9432 188.649 99.9432 188.11C99.9432 187.572 99.5845 187.136 99.1415 187.136C98.6986 187.136 98.3398 187.572 98.3398 188.11C98.3398 188.649 98.6986 189.085 99.1415 189.085Z" fill="white"/>
<path d="M109.563 187.136H102.749C102.306 187.136 101.947 187.572 101.947 188.11C101.947 188.649 102.306 189.085 102.749 189.085H109.563C110.006 189.085 110.365 188.649 110.365 188.11C110.365 187.572 110.006 187.136 109.563 187.136Z" fill="white"/>
<path d="M129.205 192.983H79.9003C79.0147 192.983 78.2969 193.856 78.2969 194.933V217.349C78.2969 218.425 79.0147 219.298 79.9003 219.298H129.205C130.09 219.298 130.808 218.425 130.808 217.349V194.933C130.808 193.856 130.09 192.983 129.205 192.983Z" fill="white"/>
<mask id="mask0_392_507" style="mask-type:luminance" maskUnits="userSpaceOnUse" x="93" y="200" width="31" height="12">
<path d="M123.192 200.878H93.9297V211.404H123.192V200.878Z" fill="white"/>
</mask>
<g mask="url(#mask0_392_507)">
<path d="M121.989 200.878H95.1322C94.4681 200.878 93.9297 201.532 93.9297 202.34V203.363C93.9297 204.171 94.4681 204.825 95.1322 204.825H121.989C122.653 204.825 123.192 204.171 123.192 203.363V202.34C123.192 201.532 122.653 200.878 121.989 200.878Z" fill="#1746A2"/>
<path d="M112.369 207.456H95.1322C94.4681 207.456 93.9297 208.111 93.9297 208.918V209.941C93.9297 210.749 94.4681 211.403 95.1322 211.403H112.369C113.033 211.403 113.571 210.749 113.571 209.941V208.918C113.571 208.111 113.033 207.456 112.369 207.456Z" fill="#1746A2"/>
</g>
<path fill-rule="evenodd" clip-rule="evenodd" d="M86.7145 211.988C89.3709 211.988 91.5247 209.37 91.5247 206.141C91.5247 202.911 89.3709 200.293 86.7145 200.293C84.0581 200.293 81.9043 202.911 81.9043 206.141C81.9043 209.37 84.0581 211.988 86.7145 211.988Z" fill="#5F9DF7"/>
<path d="M129.205 223.196H79.9003C79.0147 223.196 78.2969 224.069 78.2969 225.145V241.714C78.2969 242.79 79.0147 243.663 79.9003 243.663H129.205C130.09 243.663 130.808 242.79 130.808 241.714V225.145C130.808 224.069 130.09 223.196 129.205 223.196Z" fill="white"/>
<mask id="mask1_392_507" style="mask-type:luminance" maskUnits="userSpaceOnUse" x="93" y="229" width="31" height="9">
<path d="M123.192 229.336H93.9297V237.523H123.192V229.336Z" fill="white"/>
</mask>
<g mask="url(#mask1_392_507)">
<path d="M121.989 229.336H95.1322C94.4681 229.336 93.9297 229.99 93.9297 230.798V230.944C93.9297 231.751 94.4681 232.406 95.1322 232.406H121.989C122.653 232.406 123.192 231.751 123.192 230.944V230.798C123.192 229.99 122.653 229.336 121.989 229.336Z" fill="#1746A2"/>
<path d="M112.369 234.453H95.1322C94.4681 234.453 93.9297 235.108 93.9297 235.915V236.061C93.9297 236.869 94.4681 237.523 95.1322 237.523H112.369C113.033 237.523 113.571 236.869 113.571 236.061V235.915C113.571 235.108 113.033 234.453 112.369 234.453Z" fill="#1746A2"/>
</g>
<path fill-rule="evenodd" clip-rule="evenodd" d="M86.7145 239.277C89.3709 239.277 91.5247 236.659 91.5247 233.43C91.5247 230.2 89.3709 227.582 86.7145 227.582C84.0581 227.582 81.9043 230.2 81.9043 233.43C81.9043 236.659 84.0581 239.277 86.7145 239.277Z" fill="#5F9DF7"/>
<path d="M129.205 247.562H79.9003C79.0147 247.562 78.2969 248.435 78.2969 249.512V266.08C78.2969 267.157 79.0147 268.029 79.9003 268.029H129.205C130.09 268.029 130.808 267.157 130.808 266.08V249.512C130.808 248.435 130.09 247.562 129.205 247.562Z" fill="white"/>
<mask id="mask2_392_507" style="mask-type:luminance" maskUnits="userSpaceOnUse" x="93" y="253" width="31" height="9">
<path d="M123.192 253.701H93.9297V261.888H123.192V253.701Z" fill="white"/>
</mask>
<g mask="url(#mask2_392_507)">
<path d="M121.989 253.701H95.1322C94.4681 253.701 93.9297 254.356 93.9297 255.163V255.309C93.9297 256.117 94.4681 256.771 95.1322 256.771H121.989C122.653 256.771 123.192 256.117 123.192 255.309V255.163C123.192 254.356 122.653 253.701 121.989 253.701Z" fill="#1746A2"/>
<path d="M112.369 258.817H95.1322C94.4681 258.817 93.9297 259.472 93.9297 260.279V260.425C93.9297 261.233 94.4681 261.887 95.1322 261.887H112.369C113.033 261.887 113.571 261.233 113.571 260.425V260.279C113.571 259.472 113.033 258.817 112.369 258.817Z" fill="#1746A2"/>
</g>
<path fill-rule="evenodd" clip-rule="evenodd" d="M86.7145 263.644C89.3709 263.644 91.5247 261.025 91.5247 257.796C91.5247 254.567 89.3709 251.948 86.7145 251.948C84.0581 251.948 81.9043 254.567 81.9043 257.796C81.9043 261.025 84.0581 263.644 86.7145 263.644Z" fill="#5F9DF7"/>
<path d="M129.205 271.927H79.9003C79.0147 271.927 78.2969 272.799 78.2969 273.876V290.444C78.2969 291.521 79.0147 292.393 79.9003 292.393H129.205C130.09 292.393 130.808 291.521 130.808 290.444V273.876C130.808 272.799 130.09 271.927 129.205 271.927Z" fill="white"/>
<mask id="mask3_392_507" style="mask-type:luminance" maskUnits="userSpaceOnUse" x="93" y="278" width="31" height="9">
<path d="M123.192 278.067H93.9297V286.254H123.192V278.067Z" fill="white"/>
</mask>
<g mask="url(#mask3_392_507)">
<path d="M121.989 278.067H95.1322C94.4681 278.067 93.9297 278.722 93.9297 279.529V279.675C93.9297 280.483 94.4681 281.137 95.1322 281.137H121.989C122.653 281.137 123.192 280.483 123.192 279.675V279.529C123.192 278.722 122.653 278.067 121.989 278.067Z" fill="#1746A2"/>
<path d="M112.369 283.184H95.1322C94.4681 283.184 93.9297 283.838 93.9297 284.646V284.792C93.9297 285.599 94.4681 286.254 95.1322 286.254H112.369C113.033 286.254 113.571 285.599 113.571 284.792V284.646C113.571 283.838 113.033 283.184 112.369 283.184Z" fill="#1746A2"/>
</g>
<path fill-rule="evenodd" clip-rule="evenodd" d="M86.7145 288.008C89.3709 288.008 91.5247 285.389 91.5247 282.16C91.5247 278.931 89.3709 276.312 86.7145 276.312C84.0581 276.312 81.9043 278.931 81.9043 282.16C81.9043 285.389 84.0581 288.008 86.7145 288.008Z" fill="#5F9DF7"/>
<path fill-rule="evenodd" clip-rule="evenodd" d="M84.7668 298.241C84.2357 298.241 83.7062 298.254 83.1758 298.288C82.7714 298.313 82.1537 298.211 81.8118 298.518C81.4562 298.836 81.4806 299.487 81.5364 299.947C81.8298 302.38 82.5461 304.537 84.0449 306.26C86.3526 308.914 88.9978 310.262 92.128 310.862C94.3271 311.284 96.357 310.699 97.9756 308.798C99.1585 311.466 100.056 314.419 100.506 317.4C100.728 318.87 100.796 320.323 100.757 321.821C100.731 322.78 100.688 323.737 100.604 324.692C100.567 325.106 100.393 325.734 100.526 326.126C100.683 326.586 101.212 326.631 101.449 326.238C101.647 325.912 101.611 325.27 101.651 324.884C101.718 324.241 101.781 323.598 101.825 322.953C101.898 321.909 101.951 320.862 101.947 319.813C101.938 317.458 101.507 315.094 100.918 312.858C99.7875 308.568 97.9536 304.756 95.1011 301.765C93.347 299.926 91.3396 299.181 89.0623 298.781C87.6441 298.532 86.2031 298.241 84.7668 298.241Z" fill="#5F9DF7"/>
<path fill-rule="evenodd" clip-rule="evenodd" d="M92.9565 315.297C87.2248 315.297 83.3646 320.913 81.5395 326.749C80.8513 328.949 80.6901 331.365 80.4248 333.675C80.3398 334.417 80.3714 335.546 80.1237 336.207C80.0339 336.446 79.8279 336.532 79.9265 336.859C79.9862 337.056 80.1029 337.177 80.2789 337.216C80.6392 337.297 81.1491 336.82 81.4582 336.631C84.022 335.068 85.7064 332.651 87.0805 329.694C87.9327 327.861 88.7969 325.959 89.3028 323.946C89.6118 322.717 89.7918 321.423 89.8977 320.147C89.9393 319.645 89.9794 319.131 89.977 318.626C89.9746 318.125 89.7826 317.86 89.6447 317.423C91.5572 316.543 93.7162 316.304 95.6535 317.215C97.4453 318.059 98.9336 319.689 99.767 321.737C99.9835 322.269 100.151 322.831 100.272 323.404C100.352 323.779 100.355 324.265 100.503 324.604C100.861 325.427 101.614 324.877 101.542 324.112C101.34 321.977 100.335 319.833 99.0511 318.349C97.4312 316.477 95.2362 315.297 92.9565 315.297Z" fill="#5F9DF7"/>
<path d="M159.669 192.01H102.347C100.576 192.01 99.1406 193.755 99.1406 195.908V335.277C99.1406 337.43 100.576 339.175 102.347 339.175H159.669C161.44 339.175 162.876 337.43 162.876 335.277V195.908C162.876 193.755 161.44 192.01 159.669 192.01Z" fill="#1746A2"/>
<path fill-rule="evenodd" clip-rule="evenodd" d="M130.808 329.917C134.128 329.917 136.82 326.644 136.82 322.607C136.82 318.571 134.128 315.298 130.808 315.298C127.487 315.298 124.795 318.571 124.795 322.607C124.795 326.644 127.487 329.917 130.808 329.917Z" fill="white"/>
<path fill-rule="evenodd" clip-rule="evenodd" d="M125.597 201.756C126.04 201.756 126.398 201.32 126.398 200.781C126.398 200.243 126.04 199.807 125.597 199.807C125.154 199.807 124.795 200.243 124.795 200.781C124.795 201.32 125.154 201.756 125.597 201.756Z" fill="white"/>
<path d="M136.018 199.807H129.204C128.761 199.807 128.402 200.243 128.402 200.781C128.402 201.32 128.761 201.756 129.204 201.756H136.018C136.461 201.756 136.82 201.32 136.82 200.781C136.82 200.243 136.461 199.807 136.018 199.807Z" fill="white"/>
<path d="M155.66 205.654H106.355C105.47 205.654 104.752 206.527 104.752 207.604V230.019C104.752 231.096 105.47 231.969 106.355 231.969H155.66C156.545 231.969 157.263 231.096 157.263 230.019V207.604C157.263 206.527 156.545 205.654 155.66 205.654Z" fill="white"/>
<mask id="mask4_392_507" style="mask-type:luminance" maskUnits="userSpaceOnUse" x="108" y="213" width="30" height="12">
<path d="M137.621 213.55H108.359V224.076H137.621V213.55Z" fill="white"/>
</mask>
<g mask="url(#mask4_392_507)">
<path d="M136.419 213.55H109.562C108.898 213.55 108.359 214.204 108.359 215.012V216.035C108.359 216.842 108.898 217.497 109.562 217.497H136.419C137.083 217.497 137.621 216.842 137.621 216.035V215.012C137.621 214.204 137.083 213.55 136.419 213.55Z" fill="#1746A2"/>
<path d="M126.798 220.128H109.562C108.898 220.128 108.359 220.782 108.359 221.59V222.613C108.359 223.421 108.898 224.075 109.562 224.075H126.798C127.463 224.075 128.001 223.421 128.001 222.613V221.59C128.001 220.782 127.463 220.128 126.798 220.128Z" fill="#1746A2"/>
</g>
<path fill-rule="evenodd" clip-rule="evenodd" d="M151.652 222.223C153.201 222.223 154.458 220.695 154.458 218.812C154.458 216.928 153.201 215.4 151.652 215.4C150.102 215.4 148.846 216.928 148.846 218.812C148.846 220.695 150.102 222.223 151.652 222.223Z" fill="#1746A2"/>
<path fill-rule="evenodd" clip-rule="evenodd" d="M151.652 220.273C152.316 220.273 152.854 219.619 152.854 218.812C152.854 218.004 152.316 217.35 151.652 217.35C150.988 217.35 150.449 218.004 150.449 218.812C150.449 219.619 150.988 220.273 151.652 220.273Z" fill="#F2F2F2"/>
<path d="M155.66 235.867H106.355C105.47 235.867 104.752 236.74 104.752 237.816V254.385C104.752 255.461 105.47 256.334 106.355 256.334H155.66C156.545 256.334 157.263 255.461 157.263 254.385V237.816C157.263 236.74 156.545 235.867 155.66 235.867Z" fill="white"/>
<mask id="mask5_392_507" style="mask-type:luminance" maskUnits="userSpaceOnUse" x="120" y="242" width="30" height="9">
<path d="M149.647 242.008H120.385V250.194H149.647V242.008Z" fill="white"/>
</mask>
<g mask="url(#mask5_392_507)">
<path d="M148.444 242.008H121.587C120.923 242.008 120.385 242.662 120.385 243.47V243.616C120.385 244.423 120.923 245.078 121.587 245.078H148.444C149.108 245.078 149.647 244.423 149.647 243.616V243.47C149.647 242.662 149.108 242.008 148.444 242.008Z" fill="#1746A2"/>
<path d="M138.824 247.124H121.587C120.923 247.124 120.385 247.779 120.385 248.586V248.732C120.385 249.54 120.923 250.194 121.587 250.194H138.824C139.488 250.194 140.026 249.54 140.026 248.732V248.586C140.026 247.779 139.488 247.124 138.824 247.124Z" fill="#1746A2"/>
</g>
<path fill-rule="evenodd" clip-rule="evenodd" d="M113.17 251.948C115.826 251.948 117.98 249.33 117.98 246.101C117.98 242.871 115.826 240.253 113.17 240.253C110.513 240.253 108.359 242.871 108.359 246.101C108.359 249.33 110.513 251.948 113.17 251.948Z" fill="#5F9DF7"/>
<path d="M155.66 260.232H106.355C105.47 260.232 104.752 261.105 104.752 262.182V278.75C104.752 279.826 105.47 280.699 106.355 280.699H155.66C156.545 280.699 157.263 279.826 157.263 278.75V262.182C157.263 261.105 156.545 260.232 155.66 260.232Z" fill="white"/>
<mask id="mask6_392_507" style="mask-type:luminance" maskUnits="userSpaceOnUse" x="108" y="266" width="30" height="9">
<path d="M137.621 266.371H108.359V274.558H137.621V266.371Z" fill="white"/>
</mask>
<g mask="url(#mask6_392_507)">
<path d="M136.419 266.371H109.562C108.898 266.371 108.359 267.026 108.359 267.833V267.979C108.359 268.787 108.898 269.441 109.562 269.441H136.419C137.083 269.441 137.621 268.787 137.621 267.979V267.833C137.621 267.026 137.083 266.371 136.419 266.371Z" fill="#1746A2"/>
<path d="M126.798 271.488H109.562C108.898 271.488 108.359 272.143 108.359 272.95V273.096C108.359 273.904 108.898 274.558 109.562 274.558H126.798C127.463 274.558 128.001 273.904 128.001 273.096V272.95C128.001 272.143 127.463 271.488 126.798 271.488Z" fill="#5F9DF7"/>
</g>
<path fill-rule="evenodd" clip-rule="evenodd" d="M151.652 273.876C153.201 273.876 154.458 272.349 154.458 270.465C154.458 268.581 153.201 267.054 151.652 267.054C150.102 267.054 148.846 268.581 148.846 270.465C148.846 272.349 150.102 273.876 151.652 273.876Z" fill="#1746A2"/>
<path fill-rule="evenodd" clip-rule="evenodd" d="M151.652 271.927C152.316 271.927 152.854 271.272 152.854 270.465C152.854 269.657 152.316 269.003 151.652 269.003C150.988 269.003 150.449 269.657 150.449 270.465C150.449 271.272 150.988 271.927 151.652 271.927Z" fill="#F2F2F2"/>
<path d="M155.66 284.598H106.355C105.47 284.598 104.752 285.47 104.752 286.547V303.115C104.752 304.192 105.47 305.064 106.355 305.064H155.66C156.545 305.064 157.263 304.192 157.263 303.115V286.547C157.263 285.47 156.545 284.598 155.66 284.598Z" fill="white"/>
<mask id="mask7_392_507" style="mask-type:luminance" maskUnits="userSpaceOnUse" x="120" y="290" width="30" height="9">
<path d="M149.649 290.738H120.387V298.925H149.649V290.738Z" fill="white"/>
</mask>
<g mask="url(#mask7_392_507)">
<path d="M148.446 290.738H121.589C120.925 290.738 120.387 291.393 120.387 292.2V292.346C120.387 293.154 120.925 293.808 121.589 293.808H148.446C149.11 293.808 149.649 293.154 149.649 292.346V292.2C149.649 291.393 149.11 290.738 148.446 290.738Z" fill="#1746A2"/>
<path d="M138.826 295.855H121.589C120.925 295.855 120.387 296.51 120.387 297.317V297.464C120.387 298.271 120.925 298.925 121.589 298.925H138.826C139.49 298.925 140.028 298.271 140.028 297.464V297.317C140.028 296.51 139.49 295.855 138.826 295.855Z" fill="#1746A2"/>
</g>
<path fill-rule="evenodd" clip-rule="evenodd" d="M113.17 300.679C115.826 300.679 117.98 298.06 117.98 294.831C117.98 291.602 115.826 288.983 113.17 288.983C110.513 288.983 108.359 291.602 108.359 294.831C108.359 298.06 110.513 300.679 113.17 300.679Z" fill="#5F9DF7"/>
<path d="M256.676 204.192H128.804C127.033 204.192 125.598 205.938 125.598 208.091V368.901C125.598 371.054 127.033 372.799 128.804 372.799H256.676C258.447 372.799 259.883 371.054 259.883 368.901V208.091C259.883 205.938 258.447 204.192 256.676 204.192Z" fill="#F2F2F2"/>
<path d="M250.263 225.147H228.617C226.846 225.147 225.41 226.893 225.41 229.046V260.721C225.41 262.874 226.846 264.619 228.617 264.619H250.263C252.034 264.619 253.47 262.874 253.47 260.721V229.046C253.47 226.893 252.034 225.147 250.263 225.147Z" fill="white"/>
<path fill-rule="evenodd" clip-rule="evenodd" d="M239.439 248.051C242.981 248.051 245.853 244.56 245.853 240.254C245.853 235.948 242.981 232.457 239.439 232.457C235.897 232.457 233.025 235.948 233.025 240.254C233.025 244.56 235.897 248.051 239.439 248.051Z" fill="#1746A2"/>
<path d="M248.258 250H230.621C229.956 250 229.418 250.655 229.418 251.462C229.418 252.269 229.956 252.924 230.621 252.924H248.258C248.922 252.924 249.46 252.269 249.46 251.462C249.46 250.655 248.922 250 248.258 250Z" fill="#1746A2"/>
<path d="M245.051 254.873H233.828C233.163 254.873 232.625 255.528 232.625 256.335C232.625 257.142 233.163 257.797 233.828 257.797H245.051C245.716 257.797 246.254 257.142 246.254 256.335C246.254 255.528 245.716 254.873 245.051 254.873Z" fill="#1746A2"/>
<path d="M125.598 208.091C125.598 205.938 127.034 204.192 128.804 204.192H256.676C258.447 204.192 259.883 205.938 259.883 208.091V217.35H125.598V208.091Z" fill="#5F9DF7"/>
<path fill-rule="evenodd" clip-rule="evenodd" d="M130.808 212.964C131.694 212.964 132.412 212.091 132.412 211.015C132.412 209.938 131.694 209.065 130.808 209.065C129.923 209.065 129.205 209.938 129.205 211.015C129.205 212.091 129.923 212.964 130.808 212.964Z" fill="#F2F2F2"/>
<path fill-rule="evenodd" clip-rule="evenodd" d="M135.619 212.964C136.505 212.964 137.222 212.091 137.222 211.015C137.222 209.938 136.505 209.065 135.619 209.065C134.734 209.065 134.016 209.938 134.016 211.015C134.016 212.091 134.734 212.964 135.619 212.964Z" fill="#F2F2F2"/>
<path fill-rule="evenodd" clip-rule="evenodd" d="M140.43 212.964C141.315 212.964 142.033 212.091 142.033 211.015C142.033 209.938 141.315 209.065 140.43 209.065C139.544 209.065 138.826 209.938 138.826 211.015C138.826 212.091 139.544 212.964 140.43 212.964Z" fill="#F2F2F2"/>
<path d="M250.263 268.517H228.617C226.846 268.517 225.41 270.262 225.41 272.415V359.155C225.41 361.308 226.846 363.053 228.617 363.053H250.263C252.034 363.053 253.47 361.308 253.47 359.155V272.415C253.47 270.262 252.034 268.517 250.263 268.517Z" fill="white"/>
<path d="M244.651 277.288H234.228C233.343 277.288 232.625 278.161 232.625 279.237V288.009C232.625 289.085 233.343 289.958 234.228 289.958H244.651C245.536 289.958 246.254 289.085 246.254 288.009V279.237C246.254 278.161 245.536 277.288 244.651 277.288Z" fill="#1746A2"/>
<path d="M244.651 293.856H234.228C233.343 293.856 232.625 294.729 232.625 295.806V304.09C232.625 305.166 233.343 306.039 234.228 306.039H244.651C245.536 306.039 246.254 305.166 246.254 304.09V295.806C246.254 294.729 245.536 293.856 244.651 293.856Z" fill="#5F9DF7"/>
<path d="M244.651 309.938H234.228C233.343 309.938 232.625 310.81 232.625 311.887V320.171C232.625 321.247 233.343 322.12 234.228 322.12H244.651C245.536 322.12 246.254 321.247 246.254 320.171V311.887C246.254 310.81 245.536 309.938 244.651 309.938Z" fill="#1746A2"/>
<path d="M244.651 342.1H234.228C233.343 342.1 232.625 342.972 232.625 344.049V352.333C232.625 353.409 233.343 354.282 234.228 354.282H244.651C245.536 354.282 246.254 353.409 246.254 352.333V344.049C246.254 342.972 245.536 342.1 244.651 342.1Z" fill="#1746A2"/>
<path d="M244.651 326.019H234.228C233.343 326.019 232.625 326.891 232.625 327.968V336.252C232.625 337.328 233.343 338.201 234.228 338.201H244.651C245.536 338.201 246.254 337.328 246.254 336.252V327.968C246.254 326.891 245.536 326.019 244.651 326.019Z" fill="#5F9DF7"/>
<path d="M220.6 225.633H133.615C132.73 225.633 132.012 226.506 132.012 227.582V246.587C132.012 247.663 132.73 248.536 133.615 248.536H220.6C221.485 248.536 222.203 247.663 222.203 246.587V227.582C222.203 226.506 221.485 225.633 220.6 225.633Z" fill="white"/>
<mask id="mask8_392_507" style="mask-type:luminance" maskUnits="userSpaceOnUse" x="135" y="232" width="68" height="10">
<path d="M202.561 232.504H135.619V241.665H202.561V232.504Z" fill="white"/>
</mask>
<g mask="url(#mask8_392_507)">
<path d="M201.359 232.504H136.822C136.158 232.504 135.619 233.158 135.619 233.966V234.477C135.619 235.285 136.158 235.939 136.822 235.939H201.359C202.023 235.939 202.561 235.285 202.561 234.477V233.966C202.561 233.158 202.023 232.504 201.359 232.504Z" fill="#1746A2"/>
<path d="M179.35 238.229H136.822C136.158 238.229 135.619 238.884 135.619 239.691V240.203C135.619 241.01 136.158 241.665 136.822 241.665H179.35C180.014 241.665 180.553 241.01 180.553 240.203V239.691C180.553 238.884 180.014 238.229 179.35 238.229Z" fill="#1746A2"/>
</g>
<path fill-rule="evenodd" clip-rule="evenodd" d="M212.564 240.495C214.113 240.495 215.37 238.968 215.37 237.084C215.37 235.2 214.113 233.673 212.564 233.673C211.014 233.673 209.758 235.2 209.758 237.084C209.758 238.968 211.014 240.495 212.564 240.495Z" fill="#1746A2"/>
<path fill-rule="evenodd" clip-rule="evenodd" d="M212.564 238.546C213.228 238.546 213.766 237.891 213.766 237.084C213.766 236.277 213.228 235.622 212.564 235.622C211.9 235.622 211.361 236.277 211.361 237.084C211.361 237.891 211.9 238.546 212.564 238.546Z" fill="#F2F2F2"/>
<path d="M220.6 252.436H133.615C132.73 252.436 132.012 253.308 132.012 254.385V269.491C132.012 270.568 132.73 271.44 133.615 271.44H220.6C221.485 271.44 222.203 270.568 222.203 269.491V254.385C222.203 253.308 221.485 252.436 220.6 252.436Z" fill="white"/>
<mask id="mask9_392_507" style="mask-type:luminance" maskUnits="userSpaceOnUse" x="135" y="258" width="68" height="8">
<path d="M202.561 258.138H135.619V265.74H202.561V258.138Z" fill="white"/>
</mask>
<g mask="url(#mask9_392_507)">
<path d="M201.389 258.138H136.792C136.144 258.138 135.619 258.776 135.619 259.563C135.619 260.35 136.144 260.988 136.792 260.988H201.389C202.036 260.988 202.561 260.35 202.561 259.563C202.561 258.776 202.036 258.138 201.389 258.138Z" fill="#1746A2"/>
<path d="M179.38 262.889H136.792C136.144 262.889 135.619 263.527 135.619 264.314C135.619 265.101 136.144 265.739 136.792 265.739H179.38C180.028 265.739 180.553 265.101 180.553 264.314C180.553 263.527 180.028 262.889 179.38 262.889Z" fill="#1746A2"/>
</g>
<path fill-rule="evenodd" clip-rule="evenodd" d="M212.564 265.35C214.113 265.35 215.37 263.822 215.37 261.938C215.37 260.055 214.113 258.527 212.564 258.527C211.014 258.527 209.758 260.055 209.758 261.938C209.758 263.822 211.014 265.35 212.564 265.35Z" fill="#1746A2"/>
<path fill-rule="evenodd" clip-rule="evenodd" d="M212.564 263.4C213.228 263.4 213.766 262.746 213.766 261.938C213.766 261.131 213.228 260.477 212.564 260.477C211.9 260.477 211.361 261.131 211.361 261.938C211.361 262.746 211.9 263.4 212.564 263.4Z" fill="#F2F2F2"/>
<path d="M220.6 275.339H133.615C132.73 275.339 132.012 276.212 132.012 277.288V292.394C132.012 293.471 132.73 294.344 133.615 294.344H220.6C221.485 294.344 222.203 293.471 222.203 292.394V277.288C222.203 276.212 221.485 275.339 220.6 275.339Z" fill="white"/>
<mask id="mask10_392_507" style="mask-type:luminance" maskUnits="userSpaceOnUse" x="135" y="281" width="68" height="8">
<path d="M202.561 281.039H135.619V288.641H202.561V281.039Z" fill="white"/>
</mask>
<g mask="url(#mask10_392_507)">
<path d="M201.389 281.039H136.792C136.144 281.039 135.619 281.677 135.619 282.464C135.619 283.252 136.144 283.89 136.792 283.89H201.389C202.036 283.89 202.561 283.252 202.561 282.464C202.561 281.677 202.036 281.039 201.389 281.039Z" fill="#1746A2"/>
<path d="M179.38 285.79H136.792C136.144 285.79 135.619 286.428 135.619 287.215C135.619 288.003 136.144 288.641 136.792 288.641H179.38C180.028 288.641 180.553 288.003 180.553 287.215C180.553 286.428 180.028 285.79 179.38 285.79Z" fill="#1746A2"/>
</g>
<path fill-rule="evenodd" clip-rule="evenodd" d="M212.564 288.252C214.113 288.252 215.37 286.725 215.37 284.841C215.37 282.957 214.113 281.43 212.564 281.43C211.014 281.43 209.758 282.957 209.758 284.841C209.758 286.725 211.014 288.252 212.564 288.252Z" fill="#1746A2"/>
<path fill-rule="evenodd" clip-rule="evenodd" d="M212.564 286.303C213.228 286.303 213.766 285.648 213.766 284.841C213.766 284.033 213.228 283.379 212.564 283.379C211.9 283.379 211.361 284.033 211.361 284.841C211.361 285.648 211.9 286.303 212.564 286.303Z" fill="#5F9DF7"/>
<path d="M220.6 344.048H133.615C132.73 344.048 132.012 344.921 132.012 345.997V361.103C132.012 362.18 132.73 363.053 133.615 363.053H220.6C221.485 363.053 222.203 362.18 222.203 361.103V345.997C222.203 344.921 221.485 344.048 220.6 344.048Z" fill="white"/>
<mask id="mask11_392_507" style="mask-type:luminance" maskUnits="userSpaceOnUse" x="135" y="349" width="68" height="9">
<path d="M202.561 349.75H135.619V357.352H202.561V349.75Z" fill="white"/>
</mask>
<g mask="url(#mask11_392_507)">
<path d="M201.389 349.75H136.792C136.144 349.75 135.619 350.388 135.619 351.175C135.619 351.963 136.144 352.601 136.792 352.601H201.389C202.036 352.601 202.561 351.963 202.561 351.175C202.561 350.388 202.036 349.75 201.389 349.75Z" fill="#1746A2"/>
<path d="M179.38 354.501H136.792C136.144 354.501 135.619 355.139 135.619 355.926C135.619 356.714 136.144 357.352 136.792 357.352H179.38C180.028 357.352 180.553 356.714 180.553 355.926C180.553 355.139 180.028 354.501 179.38 354.501Z" fill="#1746A2"/>
</g>
<path fill-rule="evenodd" clip-rule="evenodd" d="M212.564 356.961C214.113 356.961 215.37 355.434 215.37 353.55C215.37 351.666 214.113 350.139 212.564 350.139C211.014 350.139 209.758 351.666 209.758 353.55C209.758 355.434 211.014 356.961 212.564 356.961Z" fill="#1746A2"/>
<path fill-rule="evenodd" clip-rule="evenodd" d="M212.564 355.012C213.228 355.012 213.766 354.357 213.766 353.55C213.766 352.742 213.228 352.088 212.564 352.088C211.9 352.088 211.361 352.742 211.361 353.55C211.361 354.357 211.9 355.012 212.564 355.012Z" fill="#F2F2F2"/>
<path d="M220.6 321.144H133.615C132.73 321.144 132.012 322.016 132.012 323.093V338.199C132.012 339.276 132.73 340.148 133.615 340.148H220.6C221.485 340.148 222.203 339.276 222.203 338.199V323.093C222.203 322.016 221.485 321.144 220.6 321.144Z" fill="white"/>
<mask id="mask12_392_507" style="mask-type:luminance" maskUnits="userSpaceOnUse" x="135" y="326" width="68" height="9">
<path d="M202.561 326.844H135.619V334.446H202.561V326.844Z" fill="white"/>
</mask>
<g mask="url(#mask12_392_507)">
<path d="M201.389 326.844H136.792C136.144 326.844 135.619 327.482 135.619 328.269C135.619 329.056 136.144 329.694 136.792 329.694H201.389C202.036 329.694 202.561 329.056 202.561 328.269C202.561 327.482 202.036 326.844 201.389 326.844Z" fill="#1746A2"/>
<path d="M179.38 331.595H136.792C136.144 331.595 135.619 332.233 135.619 333.02C135.619 333.807 136.144 334.445 136.792 334.445H179.38C180.028 334.445 180.553 333.807 180.553 333.02C180.553 332.233 180.028 331.595 179.38 331.595Z" fill="#1746A2"/>
</g>
<path fill-rule="evenodd" clip-rule="evenodd" d="M212.564 334.058C214.113 334.058 215.37 332.53 215.37 330.646C215.37 328.763 214.113 327.235 212.564 327.235C211.014 327.235 209.758 328.763 209.758 330.646C209.758 332.53 211.014 334.058 212.564 334.058Z" fill="#1746A2"/>
<path fill-rule="evenodd" clip-rule="evenodd" d="M212.564 332.108C213.228 332.108 213.766 331.454 213.766 330.646C213.766 329.839 213.228 329.185 212.564 329.185C211.9 329.185 211.361 329.839 211.361 330.646C211.361 331.454 211.9 332.108 212.564 332.108Z" fill="#F2F2F2"/>
<path d="M220.6 298.241H133.615C132.73 298.241 132.012 299.114 132.012 300.19V315.297C132.012 316.373 132.73 317.246 133.615 317.246H220.6C221.485 317.246 222.203 316.373 222.203 315.297V300.19C222.203 299.114 221.485 298.241 220.6 298.241Z" fill="white"/>
<mask id="mask13_392_507" style="mask-type:luminance" maskUnits="userSpaceOnUse" x="135" y="303" width="68" height="9">
<path d="M202.561 303.942H135.619V311.544H202.561V303.942Z" fill="white"/>
</mask>
<g mask="url(#mask13_392_507)">
<path d="M201.389 303.942H136.792C136.144 303.942 135.619 304.581 135.619 305.368C135.619 306.155 136.144 306.793 136.792 306.793H201.389C202.036 306.793 202.561 306.155 202.561 305.368C202.561 304.581 202.036 303.942 201.389 303.942Z" fill="#1746A2"/>
<path d="M179.38 308.694H136.792C136.144 308.694 135.619 309.332 135.619 310.12C135.619 310.907 136.144 311.545 136.792 311.545H179.38C180.028 311.545 180.553 310.907 180.553 310.12C180.553 309.332 180.028 308.694 179.38 308.694Z" fill="#1746A2"/>
</g>
<path fill-rule="evenodd" clip-rule="evenodd" d="M212.564 311.154C214.113 311.154 215.37 309.627 215.37 307.743C215.37 305.859 214.113 304.332 212.564 304.332C211.014 304.332 209.758 305.859 209.758 307.743C209.758 309.627 211.014 311.154 212.564 311.154Z" fill="#1746A2"/>
<path fill-rule="evenodd" clip-rule="evenodd" d="M212.564 309.205C213.228 309.205 213.766 308.551 213.766 307.743C213.766 306.936 213.228 306.281 212.564 306.281C211.9 306.281 211.361 306.936 211.361 307.743C211.361 308.551 211.9 309.205 212.564 309.205Z" fill="#F2F2F2"/>
<path d="M228.214 184.7C228.214 183.893 227.675 183.238 227.011 183.238C226.347 183.238 225.809 183.893 225.809 184.7V193.959C225.809 194.766 226.347 195.421 227.011 195.421C227.675 195.421 228.214 194.766 228.214 193.959V184.7Z" fill="#1746A2"/>
<path d="M233.825 176.903C233.825 176.096 233.287 175.441 232.622 175.441C231.958 175.441 231.42 176.096 231.42 176.903V193.959C231.42 194.766 231.958 195.421 232.622 195.421C233.287 195.421 233.825 194.766 233.825 193.959V176.903Z" fill="#1746A2"/>
<path d="M239.438 173.005C239.438 172.197 238.9 171.543 238.236 171.543C237.572 171.543 237.033 172.197 237.033 173.005V193.959C237.033 194.766 237.572 195.421 238.236 195.421C238.9 195.421 239.438 194.766 239.438 193.959V173.005Z" fill="#1746A2"/>
<path d="M245.05 176.903C245.05 176.096 244.511 175.441 243.847 175.441C243.183 175.441 242.645 176.096 242.645 176.903V193.959C242.645 194.766 243.183 195.421 243.847 195.421C244.511 195.421 245.05 194.766 245.05 193.959V176.903Z" fill="#1746A2"/>
<path d="M250.661 169.106C250.661 168.299 250.123 167.645 249.458 167.645C248.794 167.645 248.256 168.299 248.256 169.106V193.959C248.256 194.766 248.794 195.421 249.458 195.421C250.123 195.421 250.661 194.766 250.661 193.959V169.106Z" fill="#5F9DF7"/>
<path fill-rule="evenodd" clip-rule="evenodd" d="M289.451 321.232C288.681 322.226 287.59 322.85 286.376 322.85C284.044 322.85 282.154 320.559 282.154 317.733C282.154 314.907 284.044 312.617 286.376 312.617V303.114C279.742 303.114 274.312 309.694 274.312 317.733C274.312 325.772 279.742 332.352 286.376 332.352C289.861 332.352 293.01 330.566 295.157 327.724L289.451 321.232Z" fill="#F2F2F2"/>
<path fill-rule="evenodd" clip-rule="evenodd" d="M286.338 303.114V312.617C288.662 312.617 290.547 314.907 290.547 317.733H298.363C298.363 309.694 292.951 303.114 286.338 303.114Z" fill="#5F9DF7"/>
<path fill-rule="evenodd" clip-rule="evenodd" d="M290.384 317.733C290.384 319.394 289.741 320.869 288.742 321.822L293.657 329.429C296.518 326.706 298.363 322.484 298.363 317.733H290.384Z" fill="#5F9DF7"/>
<path fill-rule="evenodd" clip-rule="evenodd" d="M213.003 186.894C212.41 187.656 211.571 188.135 210.637 188.135C208.843 188.135 207.389 186.378 207.389 184.212C207.389 182.045 208.843 180.289 210.637 180.289V173.004C205.534 173.004 201.357 178.049 201.357 184.212C201.357 190.375 205.534 195.42 210.637 195.42C213.318 195.42 215.74 194.05 217.391 191.871L213.003 186.894Z" fill="#F2F2F2"/>
<path fill-rule="evenodd" clip-rule="evenodd" d="M210.576 173.004V180.289C212.358 180.289 213.803 182.045 213.803 184.212H219.796C219.796 178.049 215.646 173.004 210.576 173.004Z" fill="#5F9DF7"/>
<path fill-rule="evenodd" clip-rule="evenodd" d="M213.814 184.212C213.814 185.457 213.331 186.564 212.582 187.279L216.268 192.983C218.414 190.941 219.797 187.775 219.797 184.212H213.814Z" fill="#5F9DF7"/>
<path fill-rule="evenodd" clip-rule="evenodd" d="M67.0763 195.414C67.0746 195.418 67.0729 195.423 67.0703 195.428C67.0729 195.424 67.0763 195.406 67.0763 195.414Z" fill="#5F9DF7"/>
<path fill-rule="evenodd" clip-rule="evenodd" d="M67.0733 195.42C67.0733 195.421 67.0723 195.423 67.0723 195.425C67.0723 195.42 67.0813 195.408 67.0733 195.42Z" fill="#5F9DF7"/>
<path fill-rule="evenodd" clip-rule="evenodd" d="M67.0988 195.339C67.0931 195.358 67.0859 195.377 67.0795 195.396C67.0827 195.386 67.0859 195.379 67.0891 195.369C67.0058 195.62 67.0587 195.457 67.0988 195.339Z" fill="#5F9DF7"/>
<path fill-rule="evenodd" clip-rule="evenodd" d="M67.0837 195.397C67.0802 195.406 67.0768 195.415 67.0734 195.424C67.0485 195.477 67.0837 195.397 67.0837 195.397Z" fill="#5F9DF7"/>
<path fill-rule="evenodd" clip-rule="evenodd" d="M67.069 195.429C67.0637 195.44 67.0936 195.384 67.069 195.429V195.429Z" fill="#5F9DF7"/>
<path fill-rule="evenodd" clip-rule="evenodd" d="M67.0723 195.422L67.0745 195.42C67.0734 195.421 67.0734 195.422 67.0723 195.422Z" fill="#5F9DF7"/>
<path d="M84.3094 170.081H49.4354C48.5499 170.081 47.832 170.954 47.832 172.03V198.832C47.832 199.908 48.5499 200.781 49.4354 200.781H84.3094C85.1949 200.781 85.9128 199.908 85.9128 198.832V172.03C85.9128 170.954 85.1949 170.081 84.3094 170.081Z" fill="#1746A2"/>
<path fill-rule="evenodd" clip-rule="evenodd" d="M62.2629 178.853L51.0391 200.781H73.4867L62.2629 178.853Z" fill="#5F9DF7"/>
<path fill-rule="evenodd" clip-rule="evenodd" d="M73.2857 184.7L63.4648 200.781H83.1065L73.2857 184.7Z" fill="#5F9DF7"/>
<path fill-rule="evenodd" clip-rule="evenodd" d="M77.4944 184.7C79.487 184.7 81.102 182.737 81.102 180.314C81.102 177.892 79.487 175.929 77.4944 175.929C75.5017 175.929 73.8867 177.892 73.8867 180.314C73.8867 182.737 75.5017 184.7 77.4944 184.7Z" fill="white"/>
<path fill-rule="evenodd" clip-rule="evenodd" d="M258.275 403.492C258.277 403.497 258.279 403.501 258.281 403.506C258.279 403.502 258.275 403.484 258.275 403.492Z" fill="#5F9DF7"/>
<path fill-rule="evenodd" clip-rule="evenodd" d="M258.281 403.499C258.281 403.499 258.282 403.501 258.282 403.503C258.282 403.499 258.273 403.486 258.281 403.499Z" fill="#5F9DF7"/>
<path fill-rule="evenodd" clip-rule="evenodd" d="M258.252 403.417C258.258 403.436 258.265 403.455 258.271 403.474C258.268 403.464 258.265 403.457 258.262 403.447C258.345 403.698 258.292 403.535 258.252 403.417Z" fill="#5F9DF7"/>
<path fill-rule="evenodd" clip-rule="evenodd" d="M258.27 403.476C258.273 403.484 258.276 403.494 258.28 403.502C258.305 403.555 258.27 403.476 258.27 403.476Z" fill="#5F9DF7"/>
<path fill-rule="evenodd" clip-rule="evenodd" d="M258.283 403.507C258.259 403.462 258.289 403.518 258.283 403.507V403.507Z" fill="#5F9DF7"/>
<path fill-rule="evenodd" clip-rule="evenodd" d="M258.28 403.5L258.277 403.498C258.278 403.499 258.278 403.5 258.28 403.5Z" fill="#5F9DF7"/>
<path d="M231.421 365.977H285.135C286.02 365.977 286.738 366.849 286.738 367.926V409.834C286.738 410.91 286.02 411.783 285.135 411.783H231.421C230.535 411.783 229.818 410.91 229.818 409.834V367.926C229.818 366.849 230.535 365.977 231.421 365.977Z" fill="#1746A2"/>
<path fill-rule="evenodd" clip-rule="evenodd" d="M265.603 379.134L282.06 411.783H249.146L265.603 379.134Z" fill="#5F9DF7"/>
<path fill-rule="evenodd" clip-rule="evenodd" d="M248.635 387.88L263.184 411.784H234.086L248.635 387.88Z" fill="#5F9DF7"/>
<path fill-rule="evenodd" clip-rule="evenodd" d="M242.445 387.905C239.456 387.905 237.033 384.96 237.033 381.327C237.033 377.693 239.456 374.748 242.445 374.748C245.433 374.748 247.856 377.693 247.856 381.327C247.856 384.96 245.433 387.905 242.445 387.905Z" fill="white"/>
<path fill-rule="evenodd" clip-rule="evenodd" d="M346.737 242.557C343.542 244.198 340.512 244.781 339.184 244.181C335.853 242.677 337.083 228.173 340.355 222.847C343.627 217.521 357.577 216.965 357.058 228.357C356.878 232.311 355.071 235.608 352.65 238.164L354.27 259.024L343.246 257.471L346.737 242.557Z" fill="#915B3C"/>
<path fill-rule="evenodd" clip-rule="evenodd" d="M347.342 217.163C348.824 217.094 352.756 217.457 353.477 217.559C353.938 217.624 354.425 217.815 354.75 217.367C355.017 217 355.007 216.315 355.123 215.862C355.258 215.336 355.425 214.822 355.593 214.309C356.071 212.849 356.703 211.485 357.517 210.236C359.044 207.892 361.098 206.177 363.547 205.355C366.252 204.448 369.19 204.568 371.926 205.214C374.854 205.906 377.411 207.405 380.09 208.854C382.643 210.235 385.387 211.024 388.222 210.925C391.079 210.825 393.384 209.378 395.926 208.054C398.528 206.698 401.414 205.979 404.248 206.637C406.894 207.252 409.221 208.866 411.249 210.871C413.147 212.746 414.648 214.892 415.324 217.71C416.051 220.742 415.711 223.909 413.735 226.219C410.871 229.567 406.185 229.877 402.382 229.244C400.183 228.879 398.066 228.111 396.073 226.976C393.416 225.462 391.22 223.222 388.787 221.312C387.645 220.416 386.449 219.644 385.174 219.029C383.936 218.433 382.694 218.064 381.438 218.79C380.11 219.558 378.911 220.328 377.443 220.719C376.035 221.094 374.574 221.21 373.139 220.994C370.349 220.576 367.702 219.188 365.061 218.136C362.907 217.278 360.599 216.4 358.287 216.607C357.322 216.694 355.9 216.952 355.439 218.028C361.033 220.026 362.41 228.472 360.159 234.212C358.944 237.311 353.309 240.338 351.455 238.358C350.281 237.104 351.214 235.806 351.82 234.948C352.98 233.304 353.557 231.063 351.895 229.571C350.461 228.284 348.562 230.593 348.532 230.586C348.11 230.488 344.69 227.581 342.53 223.738C340.013 223.556 339.837 221.61 340.599 220.146C341.361 218.682 345.293 217.258 347.342 217.163Z" fill="#191847"/>
<path fill-rule="evenodd" clip-rule="evenodd" d="M350.523 302.489L333.57 369.611L325.597 420.007H317.593L325.582 302.489H350.523Z" fill="#784931"/>
<path fill-rule="evenodd" clip-rule="evenodd" d="M358.143 302.489C356.96 337.359 357.427 356.377 357.691 359.545C357.956 362.714 359.459 383.931 369.701 421.07H361.377C347.813 385.441 343.078 364.224 341.522 359.545C339.966 354.867 335.372 335.848 328.664 302.489H358.143Z" fill="#915B3C"/>
<path fill-rule="evenodd" clip-rule="evenodd" d="M350.887 302.489C346.477 325.586 338.85 362.454 328.006 413.094H316.3C315.435 361.117 319.113 326.908 325.483 302.489H350.887Z" fill="#5F9DF7"/>
<path fill-rule="evenodd" clip-rule="evenodd" d="M358.202 302.489C357.043 337.359 360.045 371.712 369.346 413.637H356.856C343.268 378.54 333.528 344.356 326.872 302.489H358.202Z" fill="#5F9DF7"/>
<path fill-rule="evenodd" clip-rule="evenodd" d="M370.887 427.984L370.462 420.113C370.444 419.786 370.167 419.563 369.889 419.632C365.876 420.625 360.322 418.412 360.322 418.412C354.726 422.967 346.644 425.045 343.858 425.656C343.333 425.771 342.998 426.378 343.143 426.968L343.788 429.579H360.322H369.968L370.887 427.984Z" fill="#191847"/>
<path fill-rule="evenodd" clip-rule="evenodd" d="M327.383 427.984L326.958 420.113C326.94 419.786 326.664 419.563 326.385 419.632C322.372 420.625 316.819 418.412 316.819 418.412C311.222 422.967 303.14 425.045 300.354 425.656C299.829 425.771 299.494 426.378 299.639 426.968L300.284 429.579H316.819H326.464L327.383 427.984Z" fill="#191847"/>
<path fill-rule="evenodd" clip-rule="evenodd" d="M295.871 299.761L312.294 290.438L314.106 300.216L298.655 304.162C293.739 308.833 291.111 310.663 290.769 309.652C290.481 308.8 290.909 308.142 291.304 307.538C291.611 307.066 291.898 306.626 291.81 306.15C291.609 305.062 288.857 304.615 286.23 304.32C283.603 304.024 284.562 302.852 285.287 302.324C288.212 301.04 291.74 300.186 295.871 299.761ZM368.794 336.806C367.937 333.422 368.05 302.159 368.05 302.159L358.519 300.274C358.519 300.274 362.314 334.779 362.71 336.923C363.224 339.709 361.091 343.173 359.646 345.522C359.422 345.886 359.215 346.222 359.036 346.526C360.381 347.572 361.222 346.806 362.108 346C363.108 345.089 364.167 344.125 366.076 345.657C366.814 346.249 367.497 346.911 368.163 347.557C370.466 349.791 372.581 351.842 376.137 350.218C376.701 349.96 377.467 348.716 376.284 347.383C373.336 344.062 369.214 338.46 368.794 336.806Z" fill="#915B3C"/>
<path fill-rule="evenodd" clip-rule="evenodd" d="M348.037 250.762L344.215 249.188C327.363 260.742 317.073 287.409 296.88 298.552L300.25 305.569C332.025 307.439 344.957 274.989 348.037 250.762Z" fill="#1746A2"/>
<path fill-rule="evenodd" clip-rule="evenodd" d="M356.476 311.145C356.476 311.145 332.772 306.347 321.603 304.087C320.01 303.764 320.716 301.181 321.152 299.894C326.175 285.036 339.103 270.54 342.47 248.623L352.806 248.847C358.765 265.905 358.734 285.416 356.476 311.145Z" fill="#1746A2"/>
<path fill-rule="evenodd" clip-rule="evenodd" d="M358.707 322.936C359.61 327.578 360.568 331.663 361.57 334.855L369.049 336.368C374.446 306.639 368.13 281.645 362.017 266.108C363.87 266.328 365.657 265.782 367.034 263.828C371.882 256.95 371.199 252.485 367.482 250.31C365.438 249.114 363.326 249.221 360.799 249.348C358.73 249.453 356.383 249.571 353.567 249.002C353.566 249.001 353.565 249.001 353.564 249.001C353.291 248.946 353.04 248.917 352.808 248.911L349.436 248.454C349.436 248.454 327.778 298.483 331.144 317.358L358.707 322.936Z" fill="#FFB283"/>
<path fill-rule="evenodd" clip-rule="evenodd" d="M358.707 322.936C357.522 316.846 356.431 309.796 355.453 302.545C353.54 309.925 351.12 317.236 348.405 320.851L358.707 322.936Z" fill="black" fill-opacity="0.1"/>
</svg>
